<svg xmlns="http://www.w3.org/2000/svg" viewBox="0 0 512 512" role="img" aria-label="وجه مساعد MODX">
<defs>
<linearGradient id="a" x1="0" y1="0" x2="1" y2="1"><stop stop-color="#a49bff"/><stop offset=".55" stop-color="#756cff"/><stop offset="1" stop-color="#28d6d1"/></linearGradient>
<linearGradient id="b" x1="0" y1="0" x2="0" y2="1"><stop stop-color="#282548"/><stop offset="1" stop-color="#16152d"/></linearGradient>
<radialGradient id="c"><stop stop-color="#b5faff"/><stop offset="1" stop-color="#71a6ff"/></radialGradient>
<filter id="glow"><feGaussianBlur stdDeviation="13"/></filter>
</defs>
<circle cx="256" cy="256" r="240" fill="#121029"/>
<circle cx="256" cy="256" r="216" fill="none" stroke="#655cfb" stroke-opacity=".36" stroke-width="3" stroke-dasharray="4 14"/>
<path d="M123 253c0-93 58-161 133-161s133 68 133 161v43c0 87-62 148-133 148s-133-61-133-148z" fill="url(#b)" stroke="url(#a)" stroke-width="14"/>
<path d="M128 212c-7-85 45-137 128-139 82-1 138 59 128 141-44-8-63-35-88-58-34 40-95 66-168 56Z" fill="url(#a)" opacity=".88"/>
<path d="M127 260c-27-3-43 14-43 44 0 33 18 53 47 48M385 260c27-3 43 14 43 44 0 33-18 53-47 48" fill="#242248" stroke="#8b84ff" stroke-width="13" stroke-linecap="round"/>
<rect x="151" y="247" width="76" height="57" rx="27" fill="#70dfff" opacity=".15" filter="url(#glow)"/>
<rect x="284" y="247" width="76" height="57" rx="27" fill="#70dfff" opacity=".15" filter="url(#glow)"/>
<path d="M161 272q30-23 57 0M294 272q30-23 57 0" fill="none" stroke="url(#c)" stroke-width="14" stroke-linecap="round"/>
<circle cx="192" cy="273" r="6" fill="#fff"/><circle cx="326" cy="273" r="6" fill="#fff"/>
<path d="M228 346q29 24 58 0" fill="none" stroke="#a9ffec" stroke-width="10" stroke-linecap="round"/>
<path d="M250 299v15" stroke="#a6abff" stroke-width="7" stroke-linecap="round"/>
<circle cx="124" cy="342" r="8" fill="#aafaff"/><circle cx="388" cy="342" r="8" fill="#aafaff"/>
<path d="M198 424q58 27 116 0" fill="none" stroke="#8c80ff" stroke-width="8" stroke-linecap="round"/>
</svg>